<svg width="22" height="22" viewBox="0 0 22 22" fill="none" xmlns="http://www.w3.org/2000/svg">
<path d="M19.6258 10.615L11.3758 2.36501C11.0458 2.03501 10.5875 1.83334 10.0833 1.83334H3.66668C2.65834 1.83334 1.83334 2.65834 1.83334 3.66668V10.0833C1.83334 10.5875 2.03501 11.0458 2.37418 11.385L10.6242 19.635C10.9542 19.965 11.4125 20.1667 11.9167 20.1667C12.4208 20.1667 12.8792 19.965 13.2092 19.6258L19.6258 13.2092C19.965 12.8792 20.1667 12.4208 20.1667 11.9167C20.1667 11.4125 19.9558 10.945 19.6258 10.615ZM11.9167 18.3425L3.66668 10.0833V3.66668H10.0833V3.65751L18.3333 11.9075L11.9167 18.3425Z" fill="white"/>
<path d="M5.95834 7.33335C6.71774 7.33335 7.33334 6.71774 7.33334 5.95835C7.33334 5.19896 6.71774 4.58335 5.95834 4.58335C5.19895 4.58335 4.58334 5.19896 4.58334 5.95835C4.58334 6.71774 5.19895 7.33335 5.95834 7.33335Z" fill="white"/>
</svg>
