<svg width="25" height="25" viewBox="0 0 25 25" fill="none" xmlns="http://www.w3.org/2000/svg">
<path d="M21.9583 7.29167C21.7783 6.97982 21.5206 6.71994 21.2102 6.53737C20.8999 6.35481 20.5475 6.25581 20.1875 6.25001H6.85415L6.24998 3.89584C6.18894 3.66859 6.05275 3.4687 5.8636 3.32873C5.67445 3.18876 5.44348 3.11695 5.20831 3.12501H3.12498C2.84871 3.12501 2.58376 3.23475 2.38841 3.43011C2.19306 3.62546 2.08331 3.89041 2.08331 4.16667C2.08331 4.44294 2.19306 4.70789 2.38841 4.90324C2.58376 5.09859 2.84871 5.20834 3.12498 5.20834H4.41665L7.29165 15.8958C7.35269 16.1231 7.48887 16.323 7.67802 16.463C7.86717 16.6029 8.09814 16.6747 8.33331 16.6667H17.7083C17.9007 16.6661 18.0891 16.6123 18.2528 16.5111C18.4164 16.41 18.5488 16.2655 18.6354 16.0938L22.0521 9.26043C22.2002 8.95002 22.2691 8.60779 22.2527 8.26426C22.2364 7.92073 22.1352 7.5866 21.9583 7.29167ZM17.0625 14.5833H9.12498L7.42706 8.33334H20.1875L17.0625 14.5833Z" fill="white"/>
<path d="M7.8125 21.875C8.67544 21.875 9.375 21.1755 9.375 20.3125C9.375 19.4496 8.67544 18.75 7.8125 18.75C6.94956 18.75 6.25 19.4496 6.25 20.3125C6.25 21.1755 6.94956 21.875 7.8125 21.875Z" fill="white"/>
<path d="M18.2292 21.875C19.0921 21.875 19.7917 21.1755 19.7917 20.3125C19.7917 19.4496 19.0921 18.75 18.2292 18.75C17.3662 18.75 16.6667 19.4496 16.6667 20.3125C16.6667 21.1755 17.3662 21.875 18.2292 21.875Z" fill="white"/>
</svg>
