<svg width="814" height="219" viewBox="0 0 814 219" fill="none" xmlns="http://www.w3.org/2000/svg">
<g style="mix-blend-mode:color" opacity="0.1">
<path d="M677.477 216.49H582.838C582.838 170.98 614.172 113.46 635.593 81.2233C642.627 70.4778 651.579 59.1002 659.892 48.9868C651.579 22.4392 645.824 8.84928 631.437 8.84928V0.632141C696.021 0.632141 728.953 37.9253 740.783 73.3222C754.531 113.776 761.245 151.385 774.034 180.777C782.027 198.792 798.333 200.056 808.565 189.31L814 194.999C801.211 212.697 780.749 218.702 764.443 218.702C729.273 218.702 703.695 189.626 693.144 158.654H645.505C652.539 181.409 664.688 202.584 677.477 216.49ZM690.586 151.069C680.994 121.993 672.042 87.5442 662.77 57.836C658.933 63.2088 655.096 68.2655 651.26 73.9543C636.872 95.4453 636.552 124.205 643.586 151.069H690.586Z" fill="#952E2E"/>
<path d="M480.109 218.702C468.599 218.702 457.409 217.754 447.177 216.49H388.668V68.5815C388.668 14.222 432.15 0 463.803 0C523.911 0 568.034 19.9108 568.034 56.8879C568.034 83.1195 546.292 99.8698 512.401 107.455C555.245 112.828 584.34 129.578 584.34 159.602C584.34 196.579 540.217 218.702 480.109 218.702ZM462.524 106.191C497.694 105.559 514.959 82.1714 485.544 45.8264C470.837 27.4958 449.415 18.6466 432.47 18.6466C411.368 18.6466 408.81 31.6044 412.008 39.5055C420.001 58.152 458.687 56.2558 458.687 97.0254V187.73C477.551 209.221 495.136 215.542 511.122 207.009C523.272 200.372 526.469 172.876 509.844 146.012C495.456 123.257 477.871 113.144 462.524 113.144V106.191Z" fill="#952E2E"/>
<path d="M266.58 216.49H171.941C171.941 170.98 203.274 113.46 224.696 81.2233C231.73 70.4778 240.682 59.1002 248.995 48.9868C240.682 22.4392 234.927 8.84928 220.54 8.84928V0.632141C285.124 0.632141 318.056 37.9253 329.886 73.3222C343.634 113.776 350.348 151.385 363.137 180.777C371.13 198.792 387.436 200.056 397.667 189.31L403.103 194.999C390.314 212.697 369.851 218.702 353.545 218.702C318.376 218.702 292.798 189.626 282.247 158.654H234.607C241.641 181.409 253.791 202.584 266.58 216.49ZM279.689 151.069C270.097 121.993 261.145 87.5442 251.873 57.836C248.036 63.2088 244.199 68.2655 240.363 73.9543C225.975 95.4453 225.655 124.205 232.689 151.069H279.689Z" fill="#952E2E"/>
<path d="M99.0613 101.134V2.2123H169.081V149.805C169.081 204.164 125.279 218.702 93.6259 218.702C61.9731 218.702 41.191 193.735 25.5244 193.735C9.53813 193.735 6.34087 202.584 6.34087 216.49H-1.01281C-5.48897 181.725 4.1028 138.111 51.7419 138.111C99.381 138.111 122.082 176.352 144.143 176.352C159.489 176.352 160.768 167.503 159.489 158.97C156.292 138.743 99.0613 141.904 99.0613 101.134Z" fill="#952E2E"/>
</g>
</svg>
