<svg width="455" height="199" viewBox="0 0 455 199" fill="none" xmlns="http://www.w3.org/2000/svg">
<g filter="url(#filter0_d_225_3)">
<rect x="15" y="14" width="419" height="123" rx="10" fill="white"/>
</g>
<path d="M53.924 107L36.347 76.31V72.218H38.393C41.679 72.218 44.438 71.908 46.67 71.288C48.964 70.668 50.762 69.645 52.064 68.219C53.366 66.793 54.141 64.84 54.389 62.36H36.347V56.408H54.296C53.862 54.114 52.994 52.254 51.692 50.828C50.39 49.34 48.623 48.255 46.391 47.573C44.221 46.891 41.555 46.55 38.393 46.55H36.347V40.598H74.849V46.55H57.272C58.698 47.728 59.876 49.123 60.806 50.735C61.736 52.347 62.325 54.238 62.573 56.408H74.849V62.36H62.759C62.325 66.886 60.589 70.42 57.551 72.962C54.575 75.442 50.607 77.023 45.647 77.705L63.41 107H53.924ZM85.2897 107V93.422L109.656 74.822C115.701 70.079 118.026 67.01 118.026 63.104C118.026 59.012 115.143 56.501 110.772 56.501C106.401 56.501 102.96 59.012 97.8447 64.871L85.6617 54.734C92.6367 45.713 99.5187 40.784 112.167 40.784C126.396 40.784 136.161 49.247 136.161 61.523V61.709C136.161 72.125 130.767 77.519 121.095 84.494L109.935 92.306H136.812V107H85.2897ZM143.51 122.345L142.115 115.556C148.346 114.812 151.601 111.836 151.415 106.814H144.254V88.679H162.668V103.466C162.668 117.23 155.135 121.973 143.51 122.345ZM176.575 107V58.268L165.601 60.779L162.16 46.829L181.225 41.435H194.338V107H176.575ZM234.502 108.302C215.902 108.302 204.463 93.05 204.463 74.636V74.45C204.463 56.036 216.181 40.598 234.688 40.598C253.195 40.598 264.727 55.85 264.727 74.264V74.45C264.727 92.864 253.102 108.302 234.502 108.302ZM234.688 92.306C241.942 92.306 246.592 84.959 246.592 74.636V74.45C246.592 64.127 241.663 56.594 234.502 56.594C227.341 56.594 222.598 63.848 222.598 74.264V74.45C222.598 84.866 227.434 92.306 234.688 92.306ZM302.436 108.302C283.836 108.302 272.397 93.05 272.397 74.636V74.45C272.397 56.036 284.115 40.598 302.622 40.598C321.129 40.598 332.661 55.85 332.661 74.264V74.45C332.661 92.864 321.036 108.302 302.436 108.302ZM302.622 92.306C309.876 92.306 314.526 84.959 314.526 74.636V74.45C314.526 64.127 309.597 56.594 302.436 56.594C295.275 56.594 290.532 63.848 290.532 74.264V74.45C290.532 84.866 295.368 92.306 302.622 92.306ZM329.714 118.904L370.913 32.786H385.235L344.036 118.904H329.714ZM386.738 85.703V70.172H417.242V85.703H386.738Z" fill="#FD0054"/>
<path d="M154.184 186L147.002 173.46V171.788H147.838C149.181 171.788 150.308 171.661 151.22 171.408C152.157 171.155 152.892 170.737 153.424 170.154C153.956 169.571 154.273 168.773 154.374 167.76H147.002V165.328H154.336C154.159 164.391 153.804 163.631 153.272 163.048C152.74 162.44 152.018 161.997 151.106 161.718C150.219 161.439 149.13 161.3 147.838 161.3H147.002V158.868H162.734V161.3H155.552C156.135 161.781 156.616 162.351 156.996 163.01C157.376 163.669 157.617 164.441 157.718 165.328H162.734V167.76H157.794C157.617 169.609 156.907 171.053 155.666 172.092C154.45 173.105 152.829 173.751 150.802 174.03L158.06 186H154.184ZM182.428 159.21H185.05V177.184H189.192V179.692H185.05V186H182.162V179.692H168.14L167.38 177.526L182.428 159.21ZM182.162 177.184V163.466L170.99 177.184H182.162ZM192.988 189.306C193.951 188.951 194.635 188.508 195.04 187.976C195.446 187.469 195.61 186.811 195.534 186H194.166V182.01H197.662V185.43C197.662 186.975 197.32 188.141 196.636 188.926C195.952 189.737 194.888 190.307 193.444 190.636L192.988 189.306ZM199.726 161.452L206.224 159.21H208.428V186H205.464V162.326L200.448 163.884L199.726 161.452ZM237.095 172.662C237.095 174.537 236.829 176.31 236.297 177.982C235.765 179.654 235.005 181.123 234.017 182.39C233.055 183.631 231.877 184.619 230.483 185.354C229.09 186.089 227.545 186.456 225.847 186.456C224.125 186.456 222.567 186.101 221.173 185.392C219.805 184.657 218.627 183.669 217.639 182.428C216.677 181.161 215.929 179.705 215.397 178.058C214.891 176.386 214.637 174.613 214.637 172.738C214.637 170.863 214.903 169.09 215.435 167.418C215.967 165.746 216.715 164.289 217.677 163.048C218.665 161.781 219.856 160.781 221.249 160.046C222.643 159.311 224.201 158.944 225.923 158.944C227.621 158.944 229.153 159.311 230.521 160.046C231.915 160.755 233.093 161.743 234.055 163.01C235.043 164.251 235.791 165.708 236.297 167.38C236.829 169.027 237.095 170.787 237.095 172.662ZM233.979 172.738C233.979 171.269 233.789 169.875 233.409 168.558C233.029 167.215 232.485 166.037 231.775 165.024C231.066 164.011 230.205 163.2 229.191 162.592C228.203 161.984 227.089 161.68 225.847 161.68C224.606 161.68 223.479 161.984 222.465 162.592C221.477 163.175 220.629 163.973 219.919 164.986C219.235 165.974 218.703 167.139 218.323 168.482C217.943 169.799 217.753 171.193 217.753 172.662C217.753 174.131 217.943 175.537 218.323 176.88C218.703 178.223 219.248 179.401 219.957 180.414C220.667 181.427 221.528 182.238 222.541 182.846C223.555 183.429 224.682 183.72 225.923 183.72C227.165 183.72 228.279 183.429 229.267 182.846C230.281 182.238 231.129 181.44 231.813 180.452C232.523 179.439 233.055 178.273 233.409 176.956C233.789 175.613 233.979 174.207 233.979 172.738ZM264.259 172.662C264.259 174.537 263.993 176.31 263.461 177.982C262.929 179.654 262.169 181.123 261.181 182.39C260.219 183.631 259.041 184.619 257.647 185.354C256.254 186.089 254.709 186.456 253.011 186.456C251.289 186.456 249.731 186.101 248.337 185.392C246.969 184.657 245.791 183.669 244.803 182.428C243.841 181.161 243.093 179.705 242.561 178.058C242.055 176.386 241.801 174.613 241.801 172.738C241.801 170.863 242.067 169.09 242.599 167.418C243.131 165.746 243.879 164.289 244.841 163.048C245.829 161.781 247.02 160.781 248.413 160.046C249.807 159.311 251.365 158.944 253.087 158.944C254.785 158.944 256.317 159.311 257.685 160.046C259.079 160.755 260.257 161.743 261.219 163.01C262.207 164.251 262.955 165.708 263.461 167.38C263.993 169.027 264.259 170.787 264.259 172.662ZM261.143 172.738C261.143 171.269 260.953 169.875 260.573 168.558C260.193 167.215 259.649 166.037 258.939 165.024C258.23 164.011 257.369 163.2 256.355 162.592C255.367 161.984 254.253 161.68 253.011 161.68C251.77 161.68 250.643 161.984 249.629 162.592C248.641 163.175 247.793 163.973 247.083 164.986C246.399 165.974 245.867 167.139 245.487 168.482C245.107 169.799 244.917 171.193 244.917 172.662C244.917 174.131 245.107 175.537 245.487 176.88C245.867 178.223 246.412 179.401 247.121 180.414C247.831 181.427 248.692 182.238 249.705 182.846C250.719 183.429 251.846 183.72 253.087 183.72C254.329 183.72 255.443 183.429 256.431 182.846C257.445 182.238 258.293 181.44 258.977 180.452C259.687 179.439 260.219 178.273 260.573 176.956C260.953 175.613 261.143 174.207 261.143 172.738ZM282.107 155.676H284.805L267.173 190.864H264.475L282.107 155.676ZM297.604 176.12H287.04V173.042H297.604V176.12Z" fill="#F30551"/>
<path d="M165.746 176.5H266.615V178.4H165.746V176.5Z" fill="#F30551"/>
<defs>
<filter id="filter0_d_225_3" x="0.299999" y="0.299999" width="454.4" height="158.4" filterUnits="userSpaceOnUse" color-interpolation-filters="sRGB">
<feFlood flood-opacity="0" result="BackgroundImageFix"/>
<feColorMatrix in="SourceAlpha" type="matrix" values="0 0 0 0 0 0 0 0 0 0 0 0 0 0 0 0 0 0 127 0" result="hardAlpha"/>
<feMorphology radius="2" operator="erode" in="SourceAlpha" result="effect1_dropShadow_225_3"/>
<feOffset dx="3" dy="4"/>
<feGaussianBlur stdDeviation="9.85"/>
<feComposite in2="hardAlpha" operator="out"/>
<feColorMatrix type="matrix" values="0 0 0 0 0 0 0 0 0 0 0 0 0 0 0 0 0 0 0.25 0"/>
<feBlend mode="normal" in2="BackgroundImageFix" result="effect1_dropShadow_225_3"/>
<feBlend mode="normal" in="SourceGraphic" in2="effect1_dropShadow_225_3" result="shape"/>
</filter>
</defs>
</svg>
